# Blender v2.93.5 OBJ File: '1.blend'
# www.blender.org
mtllib 3.mtl
o Plane.008
v -11.640321 -0.891722 -0.000000
v -11.744814 -0.787229 -0.000000
v -11.680308 -0.883768 -0.000000
v -11.714209 -0.861117 -0.000000
v -11.736860 -0.827217 -0.000000
v -9.961370 -0.787229 -0.000000
v -10.065864 -0.891722 -0.000000
v -9.969324 -0.827217 -0.000000
v -9.991976 -0.861117 -0.000000
v -10.025876 -0.883768 -0.000000
v -11.744814 0.787229 0.000000
v -11.640321 0.891722 0.000000
v -11.736860 0.827217 0.000000
v -11.714209 0.861117 0.000000
v -11.680308 0.883768 0.000000
v -10.065864 0.891722 0.000000
v -9.961370 0.787229 0.000000
v -10.025876 0.883768 0.000000
v -9.991976 0.861117 0.000000
v -9.969324 0.827217 0.000000
v -11.702291 -0.744706 0.075559
v -11.597798 -0.849199 0.075559
v -11.694338 -0.784694 0.075559
v -11.671686 -0.818594 0.075559
v -11.637786 -0.841245 0.075559
v -10.108386 -0.849199 0.075559
v -10.003893 -0.744706 0.075559
v -10.068398 -0.841245 0.075559
v -10.034498 -0.818594 0.075559
v -10.011847 -0.784694 0.075559
v -11.597798 0.849199 0.075559
v -11.702291 0.744706 0.075559
v -11.637786 0.841245 0.075559
v -11.671686 0.818594 0.075559
v -11.694338 0.784694 0.075559
v -10.003893 0.744706 0.075559
v -10.108386 0.849199 0.075559
v -10.011847 0.784694 0.075559
v -10.034498 0.818594 0.075559
v -10.068398 0.841245 0.075559
v -10.003893 0.615638 0.075559
v -11.702291 0.615638 0.075559
v -10.003893 -0.608169 0.075559
v -11.702291 -0.608169 0.075559
v -10.224127 -0.518997 0.075559
v -10.313299 -0.608169 0.075559
v -10.134954 -0.608169 0.075559
v -10.236073 -0.563583 0.075559
v -10.268713 -0.596222 0.075559
v -10.313299 0.615638 0.075559
v -10.224127 0.526466 0.075559
v -10.134954 0.615638 0.075559
v -10.268713 0.603691 0.075559
v -10.236073 0.571052 0.075559
v -11.367993 -0.608169 0.075559
v -11.457166 -0.518997 0.075559
v -11.546338 -0.608169 0.075559
v -11.412580 -0.596222 0.075559
v -11.445219 -0.563583 0.075559
v -11.457165 0.526466 0.075559
v -11.367993 0.615638 0.075559
v -11.546337 0.615638 0.075559
v -11.445218 0.571052 0.075559
v -11.412579 0.603691 0.075559
v -10.313299 -0.608169 0.008576
v -10.224127 -0.518997 0.008576
v -10.268713 -0.596222 0.008576
v -10.236073 -0.563583 0.008576
v -10.224127 0.526466 0.008576
v -10.313299 0.615638 0.008576
v -10.236073 0.571052 0.008576
v -10.268713 0.603691 0.008576
v -11.457166 -0.518997 0.008576
v -11.367993 -0.608169 0.008576
v -11.445219 -0.563583 0.008576
v -11.412580 -0.596222 0.008576
v -11.367993 0.615638 0.008576
v -11.457165 0.526466 0.008576
v -11.412579 0.603691 0.008576
v -11.445218 0.571052 0.008576
v -10.845645 -0.608169 0.075559
v -10.845645 0.615638 0.075559
v -10.845645 -0.608169 0.011819
v -10.845645 0.615638 0.011819
v -10.845645 -0.581794 0.183246
v -10.845645 0.615638 0.114671
v -11.457165 -0.517718 0.075559
v -11.367992 -0.608169 0.075559
v -11.445218 -0.562943 0.075559
v -11.412579 -0.596051 0.075559
v -11.367992 0.615638 0.075559
v -11.457165 0.526466 0.075559
v -11.412579 0.603691 0.075559
v -11.445217 0.571052 0.075559
v -11.457165 -0.517767 0.011819
v -11.367992 -0.608169 0.011819
v -11.445218 -0.562968 0.011819
v -11.412579 -0.596058 0.011819
v -11.367992 0.615638 0.011819
v -11.457165 0.526466 0.011819
v -11.412579 0.603691 0.011819
v -11.445217 0.571052 0.011819
v -11.367992 -0.581794 0.183246
v -11.457165 -0.492542 0.178135
v -11.412579 -0.569836 0.182561
v -11.445218 -0.537168 0.180690
v -11.457165 0.526466 0.119777
v -11.367992 0.615638 0.114671
v -11.445217 0.571052 0.117224
v -11.412579 0.603691 0.115355
v -10.835646 -0.608169 0.075559
v -10.835645 0.615638 0.075559
v -10.835646 -0.608169 0.011819
v -10.835645 0.615638 0.011819
v -10.835646 -0.581794 0.183246
v -10.835645 0.615638 0.114671
v -10.313298 -0.608169 0.075559
v -10.224126 -0.517717 0.075559
v -10.268712 -0.596051 0.075559
v -10.236073 -0.562943 0.075559
v -10.224126 0.526466 0.075559
v -10.313298 0.615638 0.075559
v -10.236073 0.571052 0.075559
v -10.268712 0.603691 0.075559
v -10.313298 -0.608169 0.011819
v -10.224126 -0.517767 0.011819
v -10.268712 -0.596057 0.011819
v -10.236073 -0.562968 0.011819
v -10.224126 0.526466 0.011819
v -10.313298 0.615638 0.011819
v -10.236073 0.571052 0.011819
v -10.268712 0.603691 0.011819
v -10.224126 -0.492542 0.178135
v -10.313298 -0.581794 0.183246
v -10.236073 -0.537168 0.180690
v -10.268712 -0.569836 0.182561
v -10.313298 0.615638 0.114671
v -10.224126 0.526466 0.119777
v -10.268712 0.603691 0.115355
v -10.236073 0.571052 0.117224
vt 0.058591 0.000000
vt 0.941409 0.000000
vt 0.938475 0.000000
vt 0.061525 0.000000
vt 1.000000 0.058591
vt 1.000000 0.941409
vt 1.000000 0.938475
vt 1.000000 0.862481
vt 1.000000 0.141916
vt 1.000000 0.061525
vt 0.941409 1.000000
vt 0.058591 1.000000
vt 0.061525 1.000000
vt 0.938475 1.000000
vt 0.035497 0.001487
vt 0.005720 0.005720
vt 0.001487 0.035497
vt 0.000000 0.058591
vt 0.000000 0.941409
vt 0.001487 0.964503
vt 0.005720 0.994280
vt 0.035497 0.998513
vt 0.964503 0.998513
vt 0.994280 0.994280
vt 0.998513 0.964503
vt 0.998513 0.035497
vt 0.994280 0.005720
vt 0.964503 0.001487
vt 0.196831 0.141916
vt 0.817825 0.141916
vt 0.817825 0.141916
vt 0.196831 0.141916
vt 0.998439 0.037333
vt 0.993993 0.006007
vt 0.962667 0.001561
vt 0.000000 0.061525
vt 0.001561 0.037333
vt 0.006007 0.006007
vt 0.037333 0.001561
vt 0.962667 0.998439
vt 0.993993 0.993993
vt 0.998439 0.962667
vt 0.037333 0.998439
vt 0.006007 0.993993
vt 0.001561 0.962667
vt 0.000000 0.938475
vt 0.000000 0.141916
vt 0.000000 0.862481
vt 0.817825 0.862481
vt 0.196832 0.862481
vt 0.196832 0.862481
vt 0.817825 0.862481
vt 0.144328 0.809978
vt 0.144328 0.194420
vt 0.144328 0.194420
vt 0.144328 0.809978
vt 0.870328 0.194420
vt 0.870328 0.809978
vt 0.870328 0.809978
vt 0.870328 0.194420
vt 0.170580 0.860137
vt 0.146673 0.836230
vt 0.146673 0.168168
vt 0.170580 0.144261
vt 0.844077 0.144261
vt 0.867984 0.168168
vt 0.867984 0.836230
vt 0.844077 0.860137
vt 0.091824 0.862481
vt 0.922832 0.862481
vt 0.091824 0.141916
vt 0.922832 0.141916
vt 0.870328 0.168168
vt 0.870328 0.148950
vt 0.870328 0.141916
vt 0.844077 0.862481
vt 0.863294 0.862481
vt 0.870328 0.862481
vt 0.170580 0.141916
vt 0.151362 0.141916
vt 0.144328 0.141916
vt 0.144328 0.836230
vt 0.144328 0.855447
vt 0.144328 0.862481
vt 0.144328 0.168168
vt 0.170580 0.862481
vt 0.844077 0.141916
vt 0.870328 0.836230
vt 0.197261 0.862481
vt 0.170794 0.860137
vt 0.146692 0.836230
vt 0.144328 0.809978
vt 0.144328 0.195144
vt 0.146692 0.168530
vt 0.170794 0.144293
vt 0.197261 0.141916
vt 0.507328 0.141916
vt 0.507328 0.862481
vt 0.507328 0.141916
vt 0.197261 0.141916
vt 0.197261 0.141916
vt 0.507328 0.141916
vt 0.144328 0.809978
vt 0.144328 0.195173
vt 0.197261 0.862482
vt 0.507328 0.862481
vt 0.507328 0.862481
vt 0.197261 0.862481
vt 0.144328 0.808821
vt 0.144328 0.195624
vt 0.146692 0.835651
vt 0.170794 0.860085
vt 0.170794 0.144315
vt 0.146692 0.168770
vt 0.144328 0.836230
vt 0.170794 0.862481
vt 0.170794 0.141916
vt 0.144328 0.168545
vt 0.507328 0.862481
vt 0.507328 0.141916
vt 0.817396 0.141916
vt 0.843862 0.144293
vt 0.867965 0.168530
vt 0.870329 0.195144
vt 0.870328 0.809978
vt 0.867965 0.836230
vt 0.843862 0.860137
vt 0.817396 0.862481
vt 0.507328 0.862481
vt 0.817396 0.862481
vt 0.843862 0.860085
vt 0.867965 0.835651
vt 0.870328 0.808821
vt 0.870328 0.195624
vt 0.867965 0.168770
vt 0.843862 0.144315
vt 0.817396 0.141916
vt 0.507328 0.141916
vt 0.507328 0.141916
vt 0.817396 0.141916
vt 0.817396 0.862481
vt 0.507328 0.862481
vt 0.870328 0.195173
vt 0.870328 0.809978
vt 0.870328 0.836230
vt 0.843862 0.862481
vt 0.843862 0.141916
vt 0.870328 0.168545
vn -0.0000 -0.8715 0.4904
vn 0.8715 -0.0000 0.4904
vn 0.0000 0.8715 0.4904
vn -0.0000 0.0000 -1.0000
vn -0.0000 1.0000 0.0000
vn 0.8179 -0.1627 0.5519
vn 0.6554 -0.4380 0.6153
vn 0.4379 -0.6554 0.6153
vn 0.1627 -0.8179 0.5519
vn -0.8179 -0.1627 0.5519
vn -0.6554 -0.4379 0.6153
vn -0.4379 -0.6554 0.6153
vn -0.1627 -0.8179 0.5519
vn 0.1627 0.8179 0.5519
vn 0.4379 0.6554 0.6153
vn 0.6554 0.4380 0.6153
vn 0.8179 0.1627 0.5519
vn -0.1627 0.8179 0.5519
vn -0.4379 0.6554 0.6153
vn -0.6554 0.4379 0.6153
vn -0.8179 0.1627 0.5519
vn -0.8715 0.0000 0.4904
vn 0.0000 -1.0000 0.0000
vn 1.0000 -0.0000 0.0000
vn -1.0000 0.0000 0.0000
vn -0.0000 -0.0000 1.0000
vn 0.2588 0.9659 0.0000
vn 0.7071 0.7071 0.0000
vn 0.9659 0.2588 0.0000
vn 0.2588 -0.9659 0.0000
vn 0.7071 -0.7071 0.0000
vn 0.9659 -0.2588 0.0000
vn -0.9659 0.2588 0.0000
vn -0.7071 0.7071 0.0000
vn -0.2588 0.9659 0.0000
vn -0.9659 -0.2588 0.0000
vn -0.7071 -0.7071 0.0000
vn -0.2588 -0.9659 0.0000
vn -0.0000 0.9713 -0.2379
vn -0.0000 -0.0572 -0.9984
vn 0.2622 0.9650 -0.0000
vn 0.7120 0.7022 -0.0002
vn 0.9668 0.2555 -0.0001
vn 0.2553 0.9391 -0.2300
vn 0.7019 0.6918 -0.1695
vn 0.9650 0.2548 -0.0625
vn -0.2622 0.9650 -0.0000
vn -0.7120 0.7022 -0.0002
vn -0.9668 0.2555 -0.0001
vn -0.2553 0.9391 -0.2300
vn -0.7019 0.6918 -0.1695
vn -0.9650 0.2548 -0.0625
g Plane.008_Plane.008_Material.002
usemtl Material.002
s off
f 1/1/1 7/2/1 26/3/1 22/4/1
f 6/5/2 17/6/2 36/7/2 41/8/2 43/9/2 27/10/2
f 16/11/3 12/12/3 31/13/3 37/14/3
f 1/1/4 3/15/4 4/16/4 5/17/4 2/18/4 11/19/4 13/20/4 14/21/4 15/22/4 12/12/4 16/11/4 18/23/4 19/24/4 20/25/4 17/6/4 6/5/4 8/26/4 9/27/4 10/28/4 7/2/4
f 55/29/5 46/30/5 65/31/5 74/32/5
f 6/5/6 27/10/6 30/33/6 8/26/6
f 8/26/7 30/33/7 29/34/7 9/27/7
f 9/27/8 29/34/8 28/35/8 10/28/8
f 10/28/9 28/35/9 26/3/9 7/2/9
f 21/36/10 2/18/10 5/17/10 23/37/10
f 23/37/11 5/17/11 4/16/11 24/38/11
f 24/38/12 4/16/12 3/15/12 25/39/12
f 25/39/13 3/15/13 1/1/13 22/4/13
f 16/11/14 37/14/14 40/40/14 18/23/14
f 18/23/15 40/40/15 39/41/15 19/24/15
f 19/24/16 39/41/16 38/42/16 20/25/16
f 20/25/17 38/42/17 36/7/17 17/6/17
f 31/13/18 12/12/18 15/22/18 33/43/18
f 33/43/19 15/22/19 14/21/19 34/44/19
f 34/44/20 14/21/20 13/20/20 35/45/20
f 35/45/21 13/20/21 11/19/21 32/46/21
f 11/19/22 2/18/22 21/36/22 44/47/22 42/48/22 32/46/22
f 50/49/23 61/50/23 77/51/23 70/52/23
f 60/53/24 56/54/24 73/55/24 78/56/24
f 45/57/25 51/58/25 69/59/25 66/60/25
f 77/51/26 79/61/26 80/62/26 78/56/26 73/55/26 75/63/26 76/64/26 74/32/26 65/31/26 67/65/26 68/66/26 66/60/26 69/59/26 71/67/26 72/68/26 70/52/26
f 42/48/26 62/69/26 61/50/26 50/49/26 52/70/26 41/8/26 36/7/26 38/42/26 39/41/26 40/40/26 37/14/26 31/13/26 33/43/26 34/44/26 35/45/26 32/46/26
f 44/47/26 57/71/26 56/54/26 60/53/26 62/69/26 42/48/26
f 21/36/26 23/37/26 24/38/26 25/39/26 22/4/26 26/3/26 28/35/26 29/34/26 30/33/26 27/10/26 43/9/26 47/72/26 46/30/26 55/29/26 57/71/26 44/47/26
f 45/57/26 48/73/26 47/72/26
f 48/73/26 49/74/26 47/72/26
f 49/74/26 46/75/26 47/72/26
f 50/49/26 53/76/26 52/70/26
f 53/76/26 54/77/26 52/70/26
f 54/77/26 51/78/26 52/70/26
f 55/29/26 58/79/26 57/71/26
f 58/79/26 59/80/26 57/71/26
f 59/80/26 56/81/26 57/71/26
f 60/53/26 63/82/26 62/69/26
f 63/82/26 64/83/26 62/69/26
f 64/83/26 61/84/26 62/69/26
f 55/29/27 74/32/27 76/64/27 58/79/27
f 58/79/28 76/64/28 75/63/28 59/85/28
f 59/85/29 75/63/29 73/55/29 56/54/29
f 77/51/30 61/50/30 64/86/30 79/61/30
f 79/61/31 64/86/31 63/82/31 80/62/31
f 80/62/32 63/82/32 60/53/32 78/56/32
f 45/57/33 66/60/33 68/66/33 48/73/33
f 48/73/34 68/66/34 67/65/34 49/87/34
f 49/87/35 67/65/35 65/31/35 46/30/35
f 69/59/36 51/58/36 54/88/36 71/67/36
f 71/67/37 54/88/37 53/76/37 72/68/37
f 72/68/38 53/76/38 50/49/38 70/52/38
f 52/70/26 51/58/26 45/57/26 47/72/26 43/9/26 41/8/26
g Plane.008_Plane.008_Material.001
usemtl Material.001
f 99/89/26 101/90/26 102/91/26 100/92/26 95/93/26 97/94/26 98/95/26 96/96/26 83/97/26 84/98/26
f 81/99/39 88/100/39 103/101/39 85/102/39
f 92/103/24 87/104/24 95/93/24 100/92/24
f 91/105/23 82/106/23 86/107/23 108/108/23
f 87/104/24 92/103/24 107/109/24 104/110/24
f 107/109/40 109/111/40 110/112/40 108/108/40 86/107/40 85/102/40 103/101/40 105/113/40 106/114/40 104/110/40
f 82/106/23 91/105/23 99/89/23 84/98/23
f 81/99/25 85/102/25 86/107/25 82/106/25 84/98/25 83/97/25
f 92/103/32 100/92/32 102/91/32 94/115/32
f 94/115/31 102/91/31 101/90/31 93/116/31
f 93/116/30 101/90/30 99/89/30 91/105/30
f 88/100/41 96/96/41 98/95/41 90/117/41
f 90/117/42 98/95/42 97/94/42 89/118/42
f 89/118/43 97/94/43 95/93/43 87/104/43
f 107/109/32 92/103/32 94/115/32 109/111/32
f 109/111/31 94/115/31 93/116/31 110/112/31
f 110/112/30 93/116/30 91/105/30 108/108/30
f 103/101/44 88/100/44 90/117/44 105/113/44
f 105/113/45 90/117/45 89/118/45 106/114/45
f 106/114/46 89/118/46 87/104/46 104/110/46
f 88/100/5 81/99/5 83/97/5 96/96/5
f 114/119/26 113/120/26 125/121/26 127/122/26 128/123/26 126/124/26 129/125/26 131/126/26 132/127/26 130/128/26
f 116/129/40 137/130/40 139/131/40 140/132/40 138/133/40 133/134/40 135/135/40 136/136/40 134/137/40 115/138/40
f 111/139/5 117/140/5 125/121/5 113/120/5
f 122/141/23 112/142/23 114/119/23 130/128/23
f 117/140/39 111/139/39 115/138/39 134/137/39
f 118/143/25 121/144/25 129/125/25 126/124/25
f 112/142/23 122/141/23 137/130/23 116/129/23
f 111/139/24 113/120/24 114/119/24 112/142/24 116/129/24 115/138/24
f 129/125/36 121/144/36 123/145/36 131/126/36
f 131/126/37 123/145/37 124/146/37 132/127/37
f 132/127/38 124/146/38 122/141/38 130/128/38
f 125/121/47 117/140/47 119/147/47 127/122/47
f 127/122/48 119/147/48 120/148/48 128/123/48
f 128/123/49 120/148/49 118/143/49 126/124/49
f 121/144/36 138/133/36 140/132/36 123/145/36
f 123/145/37 140/132/37 139/131/37 124/146/37
f 124/146/38 139/131/38 137/130/38 122/141/38
f 117/140/50 134/137/50 136/136/50 119/147/50
f 119/147/51 136/136/51 135/135/51 120/148/51
f 120/148/52 135/135/52 133/134/52 118/143/52
f 121/144/25 118/143/25 133/134/25 138/133/25
