# Blender v2.93.5 OBJ File: '1.blend'
# www.blender.org
mtllib 4.mtl
o Plane
v -9.388988 -0.891722 -0.000000
v -9.493482 -0.787229 -0.000000
v -9.428976 -0.883768 -0.000000
v -9.462876 -0.861117 -0.000000
v -9.485528 -0.827217 -0.000000
v -7.710038 -0.787229 -0.000000
v -7.814531 -0.891722 -0.000000
v -7.717992 -0.827217 -0.000000
v -7.740644 -0.861117 -0.000000
v -7.774543 -0.883768 -0.000000
v -9.493482 0.787229 0.000000
v -9.388988 0.891722 0.000000
v -9.485528 0.827217 0.000000
v -9.462876 0.861117 0.000000
v -9.428976 0.883768 0.000000
v -7.814531 0.891722 0.000000
v -7.710038 0.787229 0.000000
v -7.774543 0.883768 0.000000
v -7.740644 0.861117 0.000000
v -7.717992 0.827217 0.000000
v -9.450959 -0.744706 0.075559
v -9.346466 -0.849199 0.075559
v -9.443006 -0.784694 0.075559
v -9.420354 -0.818594 0.075559
v -9.386454 -0.841245 0.075559
v -7.857054 -0.849199 0.075559
v -7.752561 -0.744706 0.075559
v -7.817066 -0.841245 0.075559
v -7.783166 -0.818594 0.075559
v -7.760515 -0.784694 0.075559
v -9.346466 0.849199 0.075559
v -9.450959 0.744706 0.075559
v -9.386454 0.841245 0.075559
v -9.420354 0.818594 0.075559
v -9.443006 0.784694 0.075559
v -7.752561 0.744706 0.075559
v -7.857054 0.849199 0.075559
v -7.760515 0.784694 0.075559
v -7.783166 0.818594 0.075559
v -7.817066 0.841245 0.075559
v -7.752561 0.615638 0.075559
v -9.450959 0.615638 0.075559
v -7.752561 -0.608169 0.075559
v -9.450959 -0.608169 0.075559
v -7.972795 -0.608169 0.075559
v -7.972795 0.615638 0.075559
v -9.205833 -0.608169 0.075559
v -9.205832 0.615638 0.075559
v -7.972795 -0.608169 0.008576
v -7.972795 0.615638 0.008576
v -9.205833 -0.608169 0.008576
v -9.205832 0.615638 0.008576
v -7.972795 -0.608169 0.075559
v -7.972795 0.615638 0.075559
v -9.205833 -0.608169 0.075559
v -9.205832 0.615638 0.075559
v -7.972795 -0.608169 0.011819
v -7.972795 0.615638 0.011819
v -9.205833 -0.608169 0.011819
v -9.205832 0.615638 0.011819
v -7.972795 -0.581794 0.183246
v -7.972795 0.615638 0.114671
v -9.205833 -0.581794 0.183246
v -9.205832 0.615638 0.114671
vt 0.058591 0.000000
vt 0.941409 0.000000
vt 0.938475 0.000000
vt 0.061525 0.000000
vt 1.000000 0.058591
vt 1.000000 0.941409
vt 1.000000 0.938475
vt 1.000000 0.862481
vt 1.000000 0.141916
vt 1.000000 0.061525
vt 0.941409 1.000000
vt 0.058591 1.000000
vt 0.061525 1.000000
vt 0.938475 1.000000
vt 0.035497 0.001487
vt 0.005720 0.005720
vt 0.001487 0.035497
vt 0.000000 0.058591
vt 0.000000 0.941409
vt 0.001487 0.964503
vt 0.005720 0.994280
vt 0.035497 0.998513
vt 0.964503 0.998513
vt 0.994280 0.994280
vt 0.998513 0.964503
vt 0.998513 0.035497
vt 0.994280 0.005720
vt 0.964503 0.001487
vt 0.000000 0.061525
vt 0.001561 0.037333
vt 0.006007 0.006007
vt 0.037333 0.001561
vt 0.962667 0.001561
vt 0.993993 0.006007
vt 0.998439 0.037333
vt 0.870328 0.141916
vt 0.144328 0.141916
vt 0.000000 0.141916
vt 0.962667 0.998439
vt 0.993993 0.993993
vt 0.998439 0.962667
vt 0.037333 0.998439
vt 0.006007 0.993993
vt 0.001561 0.962667
vt 0.000000 0.938475
vt 0.000000 0.862481
vt 0.144328 0.862481
vt 0.870328 0.862481
vt 0.144328 0.141916
vt 0.144328 0.862481
vt 0.870328 0.141916
vt 0.870328 0.862481
vt 0.144328 0.862481
vt 0.870328 0.862481
vt 0.870328 0.862481
vt 0.144328 0.862481
vt 0.144328 0.862481
vt 0.144328 0.141916
vt 0.870328 0.141916
vt 0.870328 0.862481
vt 0.870328 0.141916
vt 0.144328 0.141916
vt 0.870328 0.141916
vt 0.144328 0.141916
vn -0.0000 -0.8715 0.4904
vn 0.8715 -0.0000 0.4904
vn 0.0000 0.8715 0.4904
vn -0.0000 0.0000 -1.0000
vn 0.0000 -0.0000 1.0000
vn 0.8179 -0.1627 0.5519
vn 0.6554 -0.4379 0.6153
vn 0.4379 -0.6554 0.6153
vn 0.1627 -0.8179 0.5519
vn -0.8179 -0.1627 0.5519
vn -0.6554 -0.4380 0.6153
vn -0.4379 -0.6554 0.6153
vn -0.1627 -0.8179 0.5519
vn 0.1627 0.8179 0.5519
vn 0.4379 0.6554 0.6153
vn 0.6554 0.4380 0.6153
vn 0.8179 0.1627 0.5519
vn -0.1627 0.8179 0.5519
vn -0.4379 0.6554 0.6153
vn -0.6554 0.4380 0.6153
vn -0.8179 0.1627 0.5519
vn -0.8715 -0.0000 0.4904
vn 1.0000 -0.0000 0.0000
vn -0.0000 1.0000 0.0000
vn 0.0000 -1.0000 0.0000
vn -1.0000 -0.0000 0.0000
vn 0.0000 -0.0572 -0.9984
vn -0.0000 0.9713 -0.2379
g Plane_Plane_Material.002
usemtl Material.002
s off
f 1/1/1 7/2/1 26/3/1 22/4/1
f 6/5/2 17/6/2 36/7/2 41/8/2 43/9/2 27/10/2
f 16/11/3 12/12/3 31/13/3 37/14/3
f 1/1/4 3/15/4 4/16/4 5/17/4 2/18/4 11/19/4 13/20/4 14/21/4 15/22/4 12/12/4 16/11/4 18/23/4 19/24/4 20/25/4 17/6/4 6/5/4 8/26/4 9/27/4 10/28/4 7/2/4
f 21/29/5 23/30/5 24/31/5 25/32/5 22/4/5 26/3/5 28/33/5 29/34/5 30/35/5 27/10/5 43/9/5 45/36/5 47/37/5 44/38/5
f 6/5/6 27/10/6 30/35/6 8/26/6
f 8/26/7 30/35/7 29/34/7 9/27/7
f 9/27/8 29/34/8 28/33/8 10/28/8
f 10/28/9 28/33/9 26/3/9 7/2/9
f 21/29/10 2/18/10 5/17/10 23/30/10
f 23/30/11 5/17/11 4/16/11 24/31/11
f 24/31/12 4/16/12 3/15/12 25/32/12
f 25/32/13 3/15/13 1/1/13 22/4/13
f 16/11/14 37/14/14 40/39/14 18/23/14
f 18/23/15 40/39/15 39/40/15 19/24/15
f 19/24/16 39/40/16 38/41/16 20/25/16
f 20/25/17 38/41/17 36/7/17 17/6/17
f 31/13/18 12/12/18 15/22/18 33/42/18
f 33/42/19 15/22/19 14/21/19 34/43/19
f 34/43/20 14/21/20 13/20/20 35/44/20
f 35/44/21 13/20/21 11/19/21 32/45/21
f 11/19/22 2/18/22 21/29/22 44/38/22 42/46/22 32/45/22
f 42/46/5 48/47/5 46/48/5 41/8/5 36/7/5 38/41/5 39/40/5 40/39/5 37/14/5 31/13/5 33/42/5 34/43/5 35/44/5 32/45/5
f 44/38/5 47/37/5 48/47/5 42/46/5
f 46/48/5 45/36/5 43/9/5 41/8/5
f 48/47/23 47/37/23 51/49/23 52/50/23
f 52/50/5 51/49/5 49/51/5 50/52/5
f 47/37/24 45/36/24 49/51/24 51/49/24
f 46/48/25 48/47/25 52/50/25 50/52/25
f 45/36/26 46/48/26 50/52/26 49/51/26
g Plane_Plane_Material.001
usemtl Material.001
f 56/53/25 54/54/25 62/55/25 64/56/25
f 60/57/5 59/58/5 57/59/5 58/60/5
f 54/54/25 56/53/25 60/57/25 58/60/25
f 53/61/26 54/54/26 58/60/26 57/59/26
f 56/53/23 55/62/23 59/58/23 60/57/23
f 55/62/24 53/61/24 57/59/24 59/58/24
f 64/56/27 62/55/27 61/63/27 63/64/27
f 54/54/26 53/61/26 61/63/26 62/55/26
f 55/62/23 56/53/23 64/56/23 63/64/23
f 53/61/28 55/62/28 63/64/28 61/63/28
